<svg width="386" height="245" viewBox="0 0 386 245" fill="none" xmlns="http://www.w3.org/2000/svg">
<rect x="0.5" y="0.5" width="385" height="244" rx="19.5" fill="#101010"/>
<rect x="19" y="23" width="118" height="12" rx="6" fill="#FF9580" fill-opacity="0.63"/>
<rect x="204" y="93" width="92" height="10" rx="5" fill="#FF9580"/>
<rect x="307" y="93" width="55" height="10" rx="5" fill="#FF9580"/>
<rect x="19" y="42" width="172" height="12" rx="6" fill="#FF9580"/>
<rect x="21" y="161" width="172" height="12" rx="6" fill="#FF9580"/>
<rect x="228" y="73" width="134" height="10" rx="5" fill="#FF9580" fill-opacity="0.63"/>
<rect x="19" y="61" width="83" height="12" rx="6" fill="#FF9580" fill-opacity="0.63"/>
<rect x="22" y="141" width="83" height="12" rx="6" fill="#FF9580" fill-opacity="0.63"/>
<rect x="204" y="113" width="158" height="10" rx="5" fill="#FF9580"/>
<rect x="20.5" y="192.5" width="342" height="31" rx="15.5" fill="#282624" stroke="#FF9580"/>
<g clip-path="url(#clip0_45_29)">
<path d="M343.625 198.833C345.088 198.833 346.521 199.245 347.761 200.021C349.001 200.798 349.997 201.908 350.636 203.224C351.274 204.54 351.529 206.01 351.372 207.464C351.214 208.919 350.65 210.299 349.745 211.448L353.092 214.796C353.259 214.969 353.352 215.201 353.35 215.441C353.348 215.681 353.251 215.911 353.081 216.081C352.911 216.251 352.681 216.347 352.441 216.35C352.201 216.352 351.969 216.259 351.796 216.092L348.448 212.745C347.473 213.514 346.327 214.038 345.107 214.274C343.887 214.511 342.629 214.452 341.436 214.103C340.244 213.754 339.152 213.124 338.253 212.268C337.353 211.411 336.671 210.351 336.264 209.177C335.857 208.004 335.737 206.749 335.913 205.519C336.089 204.29 336.557 203.12 337.277 202.107C337.998 201.095 338.95 200.27 340.054 199.7C341.158 199.131 342.383 198.833 343.625 198.833ZM343.625 200.667C342.045 200.667 340.529 201.294 339.412 202.412C338.294 203.529 337.667 205.045 337.667 206.625C337.667 208.205 338.294 209.721 339.412 210.838C340.529 211.956 342.045 212.583 343.625 212.583C345.205 212.583 346.721 211.956 347.838 210.838C348.956 209.721 349.583 208.205 349.583 206.625C349.583 205.045 348.956 203.529 347.838 202.412C346.721 201.294 345.205 200.667 343.625 200.667ZM343.625 201.583C344.962 201.583 342.679 205.679 343.625 206.625C344.57 207.57 348.667 205.288 348.667 206.625C348.667 207.962 348.135 209.244 347.19 210.19C346.244 211.135 344.962 211.667 343.625 211.667C342.288 211.667 341.005 211.135 340.06 210.19C339.114 209.244 338.583 207.962 338.583 206.625C338.583 205.288 339.114 204.005 340.06 203.06C341.005 202.114 342.288 201.583 343.625 201.583Z" fill="#FF9580"/>
</g>
<rect x="0.5" y="0.5" width="385" height="244" rx="19.5" stroke="white"/>
<defs>
<clipPath id="clip0_45_29">
<rect width="22" height="22" fill="white" transform="translate(334 197)"/>
</clipPath>
</defs>
</svg>
